<svg width="117" height="20" xmlns="http://www.w3.org/2000/svg">
 <defs>
  <linearGradient y2="100%" x2="0" id="b">
   <stop stop-opacity="0.1" stop-color="#bbb" offset="0"/>
   <stop stop-opacity="0.1" offset="1"/>
  </linearGradient>
 </defs>
 <mask id="a">
  <rect id="svg_1" fill="#fff" rx="3" height="20" width="117"/>
 </mask>
 <g>
  <title>background</title>
  <rect fill="none" id="canvas_background" height="402" width="582" y="-1" x="-1"/>
 </g>
 <g>
  <title>Layer 1</title>
  <path id="svg_3" d="m0,0l37,0l0,20l-37,0l0,-20z" fill="#555"/>
  <path id="svg_4" d="m37,0l80,0l0,20l-80,0l0,-20z" fill="#4c1"/>
  <path id="svg_5" d="m0,0l117,0l0,20l-117,0l0,-20z" fill="url(#b)"/>
  <g id="svg_6" font-size="11" font-family="DejaVu Sans,Verdana,Geneva,sans-serif" text-anchor="middle" fill="#fff">
   <text id="svg_7" fill-opacity="0.3" fill="#010101" y="96" x="2.5">code</text>
   <text id="svg_8" y="-87" x="30.5">code</text>
   <polyline stroke-linecap="round" id="svg_11" points="-497,-174.96249999999998 -496,-174.96249999999998 -495,-174.96249999999998 -491,-171.96249999999998 -489,-167.96249999999998 -479,-154.96249999999998 -472,-145.96249999999998 -466,-142.96249999999998 -462,-135.96249999999998 -443,-110.96249999999998 -430,-87.96249999999998 -423,-79.96249999999998 -423,-79.96249999999998 -420,-76.96249999999998 -420,-75.96249999999998 -419,-74.96249999999998 -418,-70.96249999999998 -414,-65.96249999999998 -408,-59.96249999999998 -403,-54.96249999999998 -399,-49.96249999999998 -396,-46.96249999999998 -394,-44.96249999999998 -393,-43.96249999999998 -392,-43.96249999999998 -391,-43.96249999999998 -391,-43.96249999999998 " opacity="0.5" stroke-width="1.5" stroke="#000" fill="none"/>
   <text xml:space="preserve" text-anchor="start" font-family="null" font-size="null" id="svg_13" y="-19.9625" x="84" stroke-width="null" stroke="#000" fill="null">where to use</text>
   <text stroke="#000" transform="matrix(1.2123252386686545,0,0,1,-1.192765177128848,0) " xml:space="preserve" text-anchor="start" font-family="null" font-size="null" id="svg_14" y="14.310938" x="15.589296" stroke-width="null" fill="#010101">where to use</text>
  </g>
 </g>
</svg>